<svg width="17" height="17" viewBox="0 0 17 17" fill="none" xmlns="http://www.w3.org/2000/svg">
<path d="M15.7999 0.0390625L12.6227 0.688999L14.8379 3.63871L16.4305 3.30541L15.7999 0.0390625ZM10.2459 1.17228L8.65325 1.49725L10.8765 4.43863L12.461 4.11366L10.2459 1.17228ZM6.28451 1.97221L4.69187 2.31384L6.91509 5.25522L8.49965 4.93025L6.28451 1.97221ZM2.31504 2.80546L1.52276 2.96378C1.10268 3.05028 0.733075 3.30508 0.4951 3.67221C0.257125 4.03934 0.170233 4.48881 0.253503 4.92192L0.568797 6.55509L4.53018 5.74684L2.31504 2.80546ZM0.568797 6.55509V14.8876C0.568797 15.3296 0.739147 15.7535 1.04237 16.066C1.3456 16.3785 1.75686 16.5541 2.18569 16.5541H15.1208C16.0182 16.5541 16.7377 15.8125 16.7377 14.8876V6.55509H0.568797Z" fill="#022581"/>
</svg>
