<svg width="18" height="19" viewBox="0 0 18 19" fill="none" xmlns="http://www.w3.org/2000/svg">
<path d="M9.07983 0.777344C4.27945 0.777344 0.387695 4.6691 0.387695 9.46947C0.387695 14.2698 4.27945 18.1616 9.07983 18.1616C13.8802 18.1616 17.772 14.2698 17.772 9.46947C17.772 4.6691 13.8802 0.777344 9.07983 0.777344ZM13.1362 9.46947C13.4549 9.46947 13.7156 9.73024 13.7156 10.0489V13.5258C13.7156 13.8445 13.4549 14.1053 13.1362 14.1053H6.47219C6.15347 14.1053 5.89271 13.8445 5.89271 13.5258V13.3809L4.44402 14.1053V9.46947L5.89271 10.1938V10.0489C5.89271 9.73024 6.15347 9.46947 6.47219 9.46947H7.92087C7.30613 9.46947 6.71656 9.22527 6.28187 8.79058C5.84718 8.35589 5.60297 7.76632 5.60297 7.15157C5.60297 6.53683 5.84718 5.94726 6.28187 5.51257C6.71656 5.07788 7.30613 4.83367 7.92087 4.83367C8.33507 4.8336 8.74171 4.94461 9.09843 5.15512C9.45514 5.36563 9.74888 5.66795 9.94904 6.03058C10.1492 5.66795 10.4429 5.36563 10.7996 5.15512C11.1564 4.94461 11.563 4.8336 11.9772 4.83367C12.5919 4.83367 13.1815 5.07788 13.6162 5.51257C14.0509 5.94726 14.2951 6.53683 14.2951 7.15157C14.2951 7.76632 14.0509 8.35589 13.6162 8.79058C13.1815 9.22527 12.5919 9.46947 11.9772 9.46947H13.1362Z" fill="#022581"/>
</svg>
