<svg width="17" height="18" viewBox="0 0 17 18" fill="none" xmlns="http://www.w3.org/2000/svg">
<path d="M15.6893 0.644531C15.9083 0.644531 16.1183 0.741196 16.2732 0.913262C16.428 1.08533 16.515 1.3187 16.515 1.56203V16.2421C16.515 16.4854 16.428 16.7188 16.2732 16.8908C16.1183 17.0629 15.9083 17.1596 15.6893 17.1596H0.825752C0.606749 17.1596 0.396716 17.0629 0.241857 16.8908C0.0869986 16.7188 0 16.4854 0 16.2421V1.56203C0 1.3187 0.0869986 1.08533 0.241857 0.913262C0.396716 0.741196 0.606749 0.644531 0.825752 0.644531H15.6893ZM6.38938 6.00905C6.2216 5.54287 5.7794 5.23204 5.28395 5.23204C4.78853 5.23204 4.34636 5.54282 4.17855 6.00894L2.2191 11.4519C2.0228 11.9972 2.42685 12.5721 3.0064 12.5721H3.10693C3.39946 12.5721 3.66056 12.3886 3.75965 12.1133C3.85874 11.8381 4.11984 11.6546 4.41237 11.6546H6.15395C6.44649 11.6546 6.70759 11.8381 6.80668 12.1133C6.90576 12.3886 7.16686 12.5721 7.4594 12.5721H7.56024C8.14006 12.5721 8.54433 11.9969 8.34799 11.4514L6.38938 6.00905ZM14.0378 6.0578C14.0378 5.60175 13.6681 5.23204 13.212 5.23204C12.756 5.23204 12.3863 5.60175 12.3863 6.0578V6.2413C12.3863 6.69735 12.0166 7.06705 11.5605 7.06705C10.9157 7.06636 10.296 7.34507 9.83321 7.84396C9.37038 8.34286 9.10088 9.02261 9.08195 9.73878C9.06303 10.455 9.29618 11.1511 9.73187 11.6793C10.1676 12.2075 10.7714 12.5261 11.4152 12.5675L11.5605 12.5721C12.9287 12.5721 14.0378 11.463 14.0378 10.0948V6.0578ZM11.5605 8.90205C12.0166 8.90205 12.3863 9.27176 12.3863 9.72781V9.91131C12.3863 10.3674 12.0166 10.7371 11.5605 10.7371L11.4639 10.7306C11.2632 10.7041 11.0782 10.5967 10.944 10.4288C10.8098 10.2609 10.7357 10.0441 10.7357 9.81956C10.7357 9.59499 10.8098 9.37822 10.944 9.2103C11.0782 9.04239 11.2632 8.935 11.4639 8.90848L11.5605 8.90205ZM4.82154 9.16209C4.97755 8.72925 5.58978 8.72948 5.74547 9.16244C5.8605 9.48237 5.62342 9.81956 5.28344 9.81956C4.94331 9.81956 4.70621 9.48208 4.82154 9.16209Z" fill="#022581"/>
</svg>
